<svg id="Layer_2" height="300" viewBox="0 0 512 512" width="300" xmlns="http://www.w3.org/2000/svg" xmlns:xlink="http://www.w3.org/1999/xlink" data-name="Layer 2" version="1.1" xmlns:svgjs="http://svgjs.dev/svgjs"><rect width="512" height="512" rx="102.4" ry="102.4" x="0" y="0" shape="true" transform="matrix(0.9,0,0,0.9,25.599999999999994,25.599999999999994)" fill-opacity="1" fill="#a6afc3"/><g width="100%" height="100%" transform="matrix(1,0,0,1,0,0)"><linearGradient id="linear-gradient" gradientUnits="userSpaceOnUse" x1="43.95" x2="468.05" y1="43.95" y2="468.05"><stop stop-opacity="1" stop-color="#2492ff" offset="0"/><stop stop-opacity="1" stop-color="#0043ae" offset="1"/></linearGradient><g id="Icon"><path id="_145" d="m362 0h-212c-82.8 0-150 67.2-150 150v212c0 82.8 67.2 150 150 150h212c82.8 0 150-67.2 150-150v-212c0-82.8-67.2-150-150-150zm140 362c0 77.2-62.8 140-140 140h-212c-77.2 0-140-62.8-140-140v-212c0-77.2 62.8-140 140-140h212c77.2 0 140 62.8 140 140zm-228.32-116.57c-4.72-4.72-11-7.32-17.68-7.32s-12.96 2.6-17.68 7.32l-123.79 123.79c-7.17 7.18-9.3 17.87-5.42 27.25s12.95 15.43 23.1 15.43h53.57c6.68 0 12.96-2.6 17.68-7.32l52.54-52.54 52.54 52.54c4.72 4.72 11 7.32 17.68 7.32h53.57c10.15 0 19.21-6.06 23.1-15.43 3.88-9.38 1.76-20.07-5.42-27.25zm106.11 156.46h-53.57c-3.98 0-7.79-1.58-10.61-4.39l-59.61-59.61-59.61 59.61c-2.81 2.81-6.63 4.39-10.61 4.39h-53.57c-13.36 0-20.06-16.16-10.61-25.61l123.79-123.79c5.86-5.86 15.36-5.86 21.21 0l123.79 123.79c9.45 9.45 2.76 25.61-10.61 25.61zm-247.57-128h53.57c6.68 0 12.96-2.6 17.68-7.32l52.54-52.54 52.54 52.54c4.72 4.72 11 7.32 17.68 7.32h53.57c10.15 0 19.21-6.06 23.1-15.43s1.76-20.07-5.42-27.25l-123.79-123.79c-4.72-4.72-11-7.32-17.68-7.32s-12.96 2.6-17.68 7.32l-123.79 123.79c-7.17 7.18-9.3 17.87-5.42 27.25s12.95 15.43 23.1 15.43zm-10.61-35.61 123.79-123.79c5.86-5.86 15.36-5.86 21.21 0l123.79 123.79c9.45 9.45 2.76 25.61-10.61 25.61h-53.57c-3.98 0-7.79-1.58-10.61-4.39l-59.61-59.61-59.61 59.61c-2.81 2.81-6.63 4.39-10.61 4.39h-53.57c-13.36 0-20.06-16.16-10.61-25.61z" fill="url(#linear-gradient)" data-name="145" data-original-color="linear-gradient" stroke="none" stroke-opacity="1"/></g></g></svg>